<svg width="30" height="30" viewBox="0 0 30 30" fill="none" xmlns="http://www.w3.org/2000/svg">
<rect width="30" height="30" rx="15" fill="#DFF7E2"/>
<path d="M21.3891 20.4894L21.3954 19.8466H21.3891V20.4894ZM22.0853 18.9696L21.5607 19.3411L21.5692 19.3532L21.5783 19.3649L22.0853 18.9696ZM20.479 15.0979L21.1123 14.9868L21.1109 14.9793L20.479 15.0979ZM19.1012 8.43728L19.6083 8.04224L19.6071 8.0406L19.1012 8.43728ZM15.0003 6.40073L15.0017 5.75787L14.9982 5.75788L15.0003 6.40073ZM10.8994 8.43728L10.3939 8.04011L10.3922 8.04224L10.8994 8.43728ZM9.52513 15.0979L8.89322 14.9795L8.89194 14.9868L9.52513 15.0979ZM7.91885 18.9696L8.42235 19.3693L8.4333 19.3555L8.44349 19.3411L7.91885 18.9696ZM8.61502 20.4894V19.8465L8.60282 19.8467L8.61502 20.4894ZM14.361 6.40074C14.361 6.75578 14.6489 7.0436 15.0039 7.0436C15.3589 7.0436 15.6468 6.75578 15.6468 6.40074H14.361ZM15.6468 5.14307C15.6468 4.78803 15.3589 4.50021 15.0039 4.50021C14.6489 4.50021 14.361 4.78803 14.361 5.14307H15.6468ZM15.0003 24.0002L15.0016 23.3573H15.0003L15.0003 24.0002ZM21.3829 21.1323C21.6804 21.1351 21.9703 21.049 22.2183 20.8871L21.5157 19.8104C21.4771 19.8356 21.4355 19.847 21.3954 19.8466L21.3829 21.1323ZM22.2183 20.8871C22.466 20.7255 22.6604 20.4961 22.7827 20.2291L21.6138 19.6937C21.59 19.7457 21.5546 19.785 21.5157 19.8104L22.2183 20.8871ZM22.7827 20.2291C22.9049 19.9623 22.9513 19.6665 22.9182 19.3756L21.6407 19.521C21.6476 19.5813 21.6377 19.6415 21.6138 19.6937L22.7827 20.2291ZM22.9182 19.3756C22.8851 19.0845 22.7732 18.8064 22.5923 18.5743L21.5783 19.3649C21.611 19.4068 21.6339 19.4608 21.6407 19.521L22.9182 19.3756ZM22.61 18.5981C21.855 17.532 21.342 16.2967 21.1122 14.9868L19.8458 15.209C20.1081 16.7036 20.6941 18.1173 21.5607 19.3411L22.61 18.5981ZM21.1109 14.9793C21.012 14.4528 20.9697 13.9089 20.9404 13.3387C20.9118 12.7824 20.895 12.1756 20.8439 11.593C20.7397 10.4081 20.4847 9.16729 19.6083 8.04224L18.594 8.83233C19.2478 9.67164 19.4678 10.6212 19.5631 11.7056C19.6116 12.2577 19.6256 12.8052 19.6564 13.4046C19.6865 13.99 19.7321 14.6031 19.8472 15.2165L21.1109 14.9793ZM19.6071 8.0406C19.0511 7.33165 18.3506 6.75781 17.5542 6.36229L16.9823 7.51383C17.6038 7.82246 18.1551 8.27258 18.5953 8.83397L19.6071 8.0406ZM17.5542 6.36229C16.7576 5.96671 15.8859 5.7599 15.0017 5.75788L14.9988 7.04359C15.6837 7.04515 16.3609 7.20526 16.9823 7.51383L17.5542 6.36229ZM14.9982 5.75788C14.1143 5.76079 13.2431 5.96798 12.4469 6.36341L13.0187 7.51494C13.6402 7.20633 14.3174 7.04584 15.0024 7.04359L14.9982 5.75788ZM12.4469 6.36341C11.6508 6.75876 10.9503 7.33197 10.3939 8.04012L11.4049 8.83445C11.8456 8.27346 12.3972 7.82362 13.0187 7.51494L12.4469 6.36341ZM10.3922 8.04224C9.51573 9.16746 9.26166 10.4075 9.15846 11.5921C9.10773 12.1743 9.09139 12.7812 9.06315 13.3374C9.03419 13.9078 8.99209 14.4521 8.89326 14.9795L10.157 15.2163C10.2721 14.6019 10.3175 13.9883 10.3472 13.4026C10.3777 12.8029 10.3912 12.2556 10.4393 11.7037C10.5337 10.6199 10.7529 9.67148 11.4065 8.83233L10.3922 8.04224ZM8.89194 14.9868C8.66212 16.2967 8.14912 17.532 7.3942 18.5981L8.44349 19.3411C9.31011 18.1173 9.89609 16.7036 10.1583 15.209L8.89194 14.9868ZM7.41535 18.5699C7.23137 18.8017 7.11713 19.0807 7.08258 19.3732L8.35941 19.524C8.3665 19.464 8.3896 19.4106 8.42235 19.3693L7.41535 18.5699ZM7.08258 19.3732C7.04803 19.6656 7.0941 19.9632 7.21696 20.2314L8.38588 19.696C8.36209 19.644 8.35232 19.584 8.35941 19.524L7.08258 19.3732ZM7.21696 20.2314C7.3399 20.4998 7.5359 20.7301 7.78572 20.8915L8.48353 19.8117C8.44488 19.7867 8.40959 19.7477 8.38588 19.696L7.21696 20.2314ZM7.78572 20.8915C8.03588 21.0532 8.32807 21.1378 8.62721 21.1322L8.60282 19.8467C8.56312 19.8474 8.52183 19.8364 8.48353 19.8117L7.78572 20.8915ZM8.61502 21.1323H21.3891V19.8466H8.61502V21.1323ZM15.6468 6.40074V5.14307H14.361V6.40074H15.6468ZM16.1921 22.0789C16.1925 22.2509 16.1603 22.4207 16.0982 22.5782L17.2944 23.0497C17.4163 22.7403 17.4785 22.4096 17.4779 22.0764L16.1921 22.0789ZM16.0982 22.5782C16.0362 22.7357 15.9458 22.8769 15.8336 22.9944L16.7637 23.882C16.9925 23.6423 17.1724 23.3592 17.2944 23.0497L16.0982 22.5782ZM15.8336 22.9944C15.7215 23.1118 15.5901 23.2032 15.4476 23.2649L15.9583 24.4448C16.2615 24.3136 16.5349 24.1218 16.7637 23.882L15.8336 22.9944ZM15.4476 23.2649C15.3052 23.3265 15.1537 23.3577 15.0016 23.3573L14.9989 24.6431C15.329 24.6437 15.6551 24.5761 15.9583 24.4448L15.4476 23.2649ZM15.0003 23.3573C14.8483 23.3573 14.6971 23.326 14.555 23.2642L14.0425 24.4434C14.3451 24.5749 14.6707 24.6431 15.0003 24.6431L15.0003 23.3573ZM14.555 23.2642C14.4128 23.2024 14.2816 23.1109 14.1697 22.9935L13.2387 23.8802C13.467 24.1199 13.7399 24.3118 14.0425 24.4434L14.555 23.2642ZM14.1697 22.9935C14.0578 22.876 13.9677 22.735 13.9057 22.5776L12.7094 23.0485C12.831 23.3577 13.0104 23.6405 13.2387 23.8802L14.1697 22.9935ZM13.9057 22.5776C13.8438 22.4203 13.8117 22.2507 13.8121 22.0789L12.5263 22.0764C12.5257 22.4092 12.5877 22.7394 12.7094 23.0485L13.9057 22.5776Z" fill="#093030"/>
</svg>
